<?xml version="1.0" standalone="no"?>
<!DOCTYPE svg PUBLIC "-//W3C//DTD SVG 20010904//EN"
 "http://www.w3.org/TR/2001/REC-SVG-20010904/DTD/svg10.dtd">
<svg version="1.0" xmlns="http://www.w3.org/2000/svg"
 width="512.000000pt" height="512.000000pt" viewBox="0 0 512.000000 512.000000"
 preserveAspectRatio="xMidYMid meet">
<metadata>
Created by potrace 1.14, written by Peter Selinger 2001-2017
</metadata>
<g transform="translate(0.000000,512.000000) scale(0.100000,-0.100000)"
fill="#000000" stroke="none">
<path d="M1160 4944 c-88 -32 -149 -88 -188 -173 -22 -48 -25 -70 -27 -173 0
-64 -4 -121 -8 -125 -4 -4 -62 -8 -130 -9 -130 -2 -187 -15 -258 -60 -62 -39
-121 -105 -153 -174 l-31 -65 -3 -1810 c-2 -1287 0 -1829 8 -1875 21 -121 105
-225 228 -283 l67 -32 1896 0 1895 0 76 38 c120 59 197 158 218 281 14 84 20
3610 5 3671 -32 138 -136 249 -273 292 -26 8 -97 16 -162 18 -63 2 -122 4
-130 4 -12 1 -15 22 -16 124 -1 110 -3 129 -27 180 -102 223 -410 250 -545 47
-44 -66 -54 -110 -55 -234 -1 -61 -4 -113 -8 -116 -4 -3 -447 -5 -986 -5
l-978 1 -1 115 c-2 137 -17 195 -69 259 -31 39 -101 90 -137 101 -60 19 -160
20 -208 3z"/>
</g>
</svg>
